<svg width="41" height="40" viewBox="0 0 41 40" fill="none" xmlns="http://www.w3.org/2000/svg">
<circle cx="20.5" cy="20" r="20" fill="#1DBF73"/>
<path d="M31.4467 15.285C31.4467 15.485 31.4467 15.685 31.4334 15.8716C29.3934 15.1116 26.9934 15.5783 25.3934 17.0183C24.3134 16.045 22.9134 15.4983 21.42 15.4983C18.14 15.4983 15.4734 18.1783 15.4734 21.485C15.4734 25.2583 17.3667 28.0183 19.18 29.805C19.0334 29.7917 18.9134 29.765 18.8067 29.725C15.3534 28.5383 7.63336 23.6317 7.63336 15.285C7.63336 11.605 10.5933 8.63165 14.2467 8.63165C16.42 8.63165 18.34 9.67164 19.54 11.285C20.7534 9.67164 22.6734 8.63165 24.8334 8.63165C28.4867 8.63165 31.4467 11.605 31.4467 15.285Z" fill="white"/>
<path d="M28.9666 17.285C27.54 17.285 26.2466 17.9783 25.4466 19.045C24.6466 17.9783 23.3666 17.285 21.9266 17.285C19.5 17.285 17.5267 19.2583 17.5267 21.7117C17.5267 22.6583 17.6733 23.525 17.94 24.325C19.1933 28.285 23.0466 30.645 24.9533 31.2983C25.22 31.3917 25.66 31.3917 25.94 31.2983C27.8466 30.645 31.7 28.285 32.9533 24.325C33.22 23.5117 33.3666 22.645 33.3666 21.7117C33.3666 19.2583 31.3933 17.285 28.9666 17.285Z" fill="white"/>
</svg>
