<svg width="24" height="24" viewBox="0 0 24 24" fill="none" xmlns="http://www.w3.org/2000/svg">
<path d="M16.44 3.1001C14.63 3.1001 13.01 3.98008 12 5.33008C10.99 3.98008 9.37 3.1001 7.56 3.1001C4.49 3.1001 2 5.60009 2 8.69009C2 9.88009 2.19 10.9801 2.52 12.0001C4.1 17.0001 8.97 19.9901 11.38 20.8101C11.72 20.9301 12.28 20.9301 12.62 20.8101C15.03 19.9901 19.9 17.0001 21.48 12.0001C21.81 10.9801 22 9.88009 22 8.69009C22 5.60009 19.51 3.1001 16.44 3.1001Z" fill="#E2E4E3"/>
<path d="M11.9329 8C10.8413 8 9.95377 8.8875 9.95377 9.97917C9.95377 11.05 10.7913 11.9167 11.8829 11.9542C11.9163 11.95 11.9496 11.95 11.9746 11.9542C11.9829 11.9542 11.9871 11.9542 11.9954 11.9542C11.9996 11.9542 11.9996 11.9542 12.0038 11.9542C13.0704 11.9167 13.9079 11.05 13.9121 9.97917C13.9121 8.8875 13.0246 8 11.9329 8Z" fill="#C8CBCA"/>
<path opacity="0.5" d="M14.05 13.0625C12.8875 12.2875 10.9917 12.2875 9.82083 13.0625C9.29167 13.4166 9 13.8958 9 14.4083C9 14.9208 9.29167 15.3958 9.81667 15.7458C10.4 16.1375 11.1667 16.3333 11.9333 16.3333C12.7 16.3333 13.4667 16.1375 14.05 15.7458C14.575 15.3916 14.8666 14.9166 14.8666 14.4C14.8625 13.8875 14.575 13.4125 14.05 13.0625Z" fill="#C8CBCA"/>
</svg>
