<svg width="24" height="24" viewBox="0 0 24 24" fill="none" xmlns="http://www.w3.org/2000/svg">
<path d="M16.44 3.1001C14.63 3.1001 13.01 3.98008 12 5.33008C10.99 3.98008 9.37 3.1001 7.56 3.1001C4.49 3.1001 2 5.60009 2 8.69009C2 9.88009 2.19 10.9801 2.52 12.0001C4.1 17.0001 8.97 19.9901 11.38 20.8101C11.72 20.9301 12.28 20.9301 12.62 20.8101C15.03 19.9901 19.9 17.0001 21.48 12.0001C21.81 10.9801 22 9.88009 22 8.69009C22 5.60009 19.51 3.1001 16.44 3.1001Z" fill="#E2E4E3"/>
<path opacity="0.5" d="M12.7754 13.8998C12.7406 13.8998 12.7057 13.8917 12.6736 13.8703L11.8423 13.3742C11.6358 13.2509 11.483 12.9801 11.483 12.7414V11.642C11.483 11.5321 11.5742 11.4409 11.6841 11.4409C11.794 11.4409 11.8852 11.5321 11.8852 11.642V12.7414C11.8852 12.8379 11.9657 12.9801 12.0488 13.0283L12.88 13.5244C12.9766 13.5807 13.0061 13.704 12.9497 13.8006C12.9095 13.8649 12.8425 13.8998 12.7754 13.8998Z" fill="#C8CBCA"/>
<path d="M12.0061 8.94306C11.9201 8.94306 11.8279 8.95534 11.7418 8.96149L11.9139 8.76478C12.0799 8.57422 12.0615 8.27915 11.8709 8.11318C11.6803 7.9472 11.3853 7.96565 11.2193 8.15621L10.1927 9.33032C10.1866 9.33647 10.1866 9.34262 10.1804 9.34877C10.1743 9.35491 10.1681 9.35491 10.1681 9.36106C10.1558 9.3795 10.1497 9.4041 10.1374 9.42868C10.1251 9.45942 10.1067 9.48401 10.1005 9.51474C10.0944 9.54547 10.0944 9.57006 10.0882 9.6008C10.0882 9.63153 10.0821 9.65612 10.0821 9.68686C10.0821 9.7176 10.0944 9.74219 10.1067 9.77293C10.1128 9.80366 10.1251 9.82825 10.1374 9.85283C10.1497 9.87742 10.1743 9.90201 10.1927 9.9266C10.2112 9.94504 10.2173 9.96963 10.2358 9.98192C10.2419 9.98807 10.2481 9.98808 10.2542 9.99423C10.2604 10.0004 10.2604 10.0065 10.2665 10.0065L11.459 10.8794C11.539 10.9409 11.6373 10.9655 11.7295 10.9655C11.8709 10.9655 12.0123 10.8979 12.1045 10.7749C12.252 10.5721 12.209 10.2831 12.0061 10.1295L11.6619 9.87742C11.7725 9.86513 11.8893 9.85283 12.0061 9.85283C13.4446 9.85283 14.6187 11.027 14.6187 12.4654C14.6187 13.9038 13.4446 15.0779 12.0061 15.0779C10.5677 15.0779 9.3936 13.9038 9.3936 12.4654C9.3936 11.9429 9.54729 11.4449 9.83006 11.0147C9.97145 10.8057 9.91611 10.5167 9.70096 10.3754C9.49196 10.234 9.20305 10.2893 9.06166 10.5044C8.67439 11.0884 8.46538 11.7646 8.46538 12.4654C8.46538 14.414 10.0514 16 12 16C13.9487 16 15.5346 14.414 15.5346 12.4654C15.5346 10.5167 13.9548 8.94306 12.0061 8.94306Z" fill="#C8CBCA"/>
</svg>
